<mxfile host="app.diagrams.net" agent="Mozilla/5.0 (Windows NT 10.0; Win64; x64) AppleWebKit/537.36 (KHTML, like Gecko) Chrome/128.0.0.0 Safari/537.36" version="24.7.10">
  <diagram name="第 1 页" id="y7iJmAaxipxlzdK7qwd3">
    <mxGraphModel dx="1185" dy="632" grid="1" gridSize="10" guides="1" tooltips="1" connect="1" arrows="1" fold="1" page="1" pageScale="1" pageWidth="827" pageHeight="1169" math="1" shadow="0">
      <root>
        <mxCell id="0" />
        <mxCell id="1" parent="0" />
        <mxCell id="mOf4tWiYJ4hYIlibuN8Z-14" value="" style="rounded=1;whiteSpace=wrap;html=1;fillColor=#bac8d3;strokeColor=#23445d;" vertex="1" parent="1">
          <mxGeometry x="355" y="128" width="130" height="25" as="geometry" />
        </mxCell>
        <mxCell id="mOf4tWiYJ4hYIlibuN8Z-15" value="" style="rounded=1;whiteSpace=wrap;html=1;fillColor=#f9f7ed;strokeColor=#36393d;" vertex="1" parent="1">
          <mxGeometry x="103.5" y="166" width="552" height="166" as="geometry" />
        </mxCell>
        <mxCell id="mOf4tWiYJ4hYIlibuN8Z-16" value="" style="rounded=1;whiteSpace=wrap;html=1;fillColor=#f5f5f5;fontColor=#333333;strokeColor=#666666;" vertex="1" parent="1">
          <mxGeometry x="118.5" y="211.75" width="189" height="106" as="geometry" />
        </mxCell>
        <mxCell id="mOf4tWiYJ4hYIlibuN8Z-17" value="" style="rounded=1;whiteSpace=wrap;html=1;fillColor=#b0e3e6;strokeColor=#0e8088;" vertex="1" parent="1">
          <mxGeometry x="349.5" y="299" width="297" height="24" as="geometry" />
        </mxCell>
        <mxCell id="mOf4tWiYJ4hYIlibuN8Z-18" value="" style="rounded=1;whiteSpace=wrap;html=1;fillColor=#e1d5e7;strokeColor=#9673a6;" vertex="1" parent="1">
          <mxGeometry x="424.5" y="223.5" width="229" height="26" as="geometry" />
        </mxCell>
        <mxCell id="mOf4tWiYJ4hYIlibuN8Z-19" value="" style="rounded=0;whiteSpace=wrap;html=1;fillColor=#b0e3e6;strokeColor=#0e8088;" vertex="1" parent="1">
          <mxGeometry x="461.5" y="256" width="120" height="35" as="geometry" />
        </mxCell>
        <mxCell id="mOf4tWiYJ4hYIlibuN8Z-20" value="" style="rounded=0;whiteSpace=wrap;html=1;fillColor=#e1d5e7;strokeColor=#9673a6;" vertex="1" parent="1">
          <mxGeometry x="461.5" y="189" width="120" height="32" as="geometry" />
        </mxCell>
        <mxCell id="mOf4tWiYJ4hYIlibuN8Z-21" value="" style="rounded=0;whiteSpace=wrap;html=1;fillColor=#f5f5f5;strokeColor=#666666;fontColor=#333333;" vertex="1" parent="1">
          <mxGeometry x="166.5" y="199.75" width="93" height="25.5" as="geometry" />
        </mxCell>
        <mxCell id="mOf4tWiYJ4hYIlibuN8Z-22" value="更新" style="text;html=1;align=center;verticalAlign=middle;whiteSpace=wrap;rounded=0;" vertex="1" parent="1">
          <mxGeometry x="96.5" y="167.25" width="60" height="30" as="geometry" />
        </mxCell>
        <mxCell id="mOf4tWiYJ4hYIlibuN8Z-23" value="使用状态更新方程估计当前状态" style="text;html=1;align=center;verticalAlign=middle;whiteSpace=wrap;rounded=0;" vertex="1" parent="1">
          <mxGeometry x="470" y="191" width="96" height="30" as="geometry" />
        </mxCell>
        <mxCell id="mOf4tWiYJ4hYIlibuN8Z-24" value="更新当前估计不确定性" style="text;html=1;align=center;verticalAlign=middle;whiteSpace=wrap;rounded=0;" vertex="1" parent="1">
          <mxGeometry x="485" y="258.5" width="81" height="30" as="geometry" />
        </mxCell>
        <mxCell id="mOf4tWiYJ4hYIlibuN8Z-25" value="步骤2" style="rhombus;whiteSpace=wrap;html=1;fillColor=#f9f7ed;strokeColor=#36393d;" vertex="1" parent="1">
          <mxGeometry x="615.5" y="144" width="80" height="45" as="geometry" />
        </mxCell>
        <mxCell id="mOf4tWiYJ4hYIlibuN8Z-26" value="计算卡尔曼增益&amp;nbsp;" style="text;html=1;align=center;verticalAlign=middle;whiteSpace=wrap;rounded=0;" vertex="1" parent="1">
          <mxGeometry x="166.5" y="197.25" width="97" height="28" as="geometry" />
        </mxCell>
        <mxCell id="mOf4tWiYJ4hYIlibuN8Z-27" value="$$P_{k/k}=(I-K_{k}H)P_{k/k-1}(I-K_{k}H)^{T}+K_{k}R_{k}K_{k}^{T}$$" style="text;whiteSpace=wrap;" vertex="1" parent="1">
          <mxGeometry x="349.5" y="283.75" width="293" height="44" as="geometry" />
        </mxCell>
        <mxCell id="mOf4tWiYJ4hYIlibuN8Z-28" value="$$Z_k=H\times X_{k}+v_k$$" style="text;whiteSpace=wrap;" vertex="1" parent="1">
          <mxGeometry x="357.5" y="114" width="120" height="36" as="geometry" />
        </mxCell>
        <mxCell id="mOf4tWiYJ4hYIlibuN8Z-29" value="$$\hat{X}_{k/k}={{\hat{X}_{k/k-1}+K_{k}(Z_{k}-H\hat{X}_{k/k-1})}}$$" style="text;whiteSpace=wrap;" vertex="1" parent="1">
          <mxGeometry x="426.5" y="207.5" width="190" height="36" as="geometry" />
        </mxCell>
        <mxCell id="mOf4tWiYJ4hYIlibuN8Z-30" value="&lt;span style=&quot;color: rgb(0, 0, 0); font-family: Helvetica; font-size: 12px; font-style: normal; font-variant-ligatures: normal; font-variant-caps: normal; font-weight: 400; letter-spacing: normal; orphans: 2; text-align: left; text-indent: 0px; text-transform: none; widows: 2; word-spacing: 0px; -webkit-text-stroke-width: 0px; white-space: normal; background-color: rgb(251, 251, 251); text-decoration-thickness: initial; text-decoration-style: initial; text-decoration-color: initial; display: inline !important; float: none;&quot;&gt;$$Z_k$$&lt;/span&gt;" style="text;whiteSpace=wrap;html=1;" vertex="1" parent="1">
          <mxGeometry x="460" y="90" width="25" height="36" as="geometry" />
        </mxCell>
        <mxCell id="mOf4tWiYJ4hYIlibuN8Z-31" value="&lt;span style=&quot;color: rgb(0, 0, 0); font-family: Helvetica; font-size: 12px; font-style: normal; font-variant-ligatures: normal; font-variant-caps: normal; font-weight: 400; letter-spacing: normal; orphans: 2; text-align: left; text-indent: 0px; text-transform: none; widows: 2; word-spacing: 0px; -webkit-text-stroke-width: 0px; white-space: normal; background-color: rgb(251, 251, 251); text-decoration-thickness: initial; text-decoration-style: initial; text-decoration-color: initial; display: inline !important; float: none;&quot;&gt;$$P_{k/k}$$&lt;/span&gt;" style="text;html=1;align=center;verticalAlign=middle;resizable=0;points=[];autosize=1;strokeColor=none;fillColor=none;" vertex="1" parent="1">
          <mxGeometry x="632.5" y="247.5" width="83" height="26" as="geometry" />
        </mxCell>
        <mxCell id="mOf4tWiYJ4hYIlibuN8Z-32" value="&lt;span style=&quot;color: rgb(0, 0, 0); font-family: Helvetica; font-size: 12px; font-style: normal; font-variant-ligatures: normal; font-variant-caps: normal; font-weight: 400; letter-spacing: normal; orphans: 2; text-align: center; text-indent: 0px; text-transform: none; widows: 2; word-spacing: 0px; -webkit-text-stroke-width: 0px; white-space: normal; background-color: rgb(255, 255, 255); text-decoration-thickness: initial; text-decoration-style: initial; text-decoration-color: initial; display: inline !important; float: none;&quot;&gt;$$K_k$$&lt;/span&gt;" style="text;whiteSpace=wrap;html=1;" vertex="1" parent="1">
          <mxGeometry x="353.5" y="185" width="27.5" height="36" as="geometry" />
        </mxCell>
        <mxCell id="mOf4tWiYJ4hYIlibuN8Z-33" style="edgeStyle=orthogonalEdgeStyle;rounded=0;orthogonalLoop=1;jettySize=auto;html=1;entryX=0.5;entryY=0;entryDx=0;entryDy=0;strokeColor=#666666;" edge="1" parent="1" source="mOf4tWiYJ4hYIlibuN8Z-34" target="mOf4tWiYJ4hYIlibuN8Z-44">
          <mxGeometry relative="1" as="geometry">
            <Array as="points">
              <mxPoint x="311.5" y="242" />
              <mxPoint x="311.5" y="219" />
              <mxPoint x="356.5" y="219" />
            </Array>
          </mxGeometry>
        </mxCell>
        <mxCell id="mOf4tWiYJ4hYIlibuN8Z-34" value="" style="rounded=0;whiteSpace=wrap;html=1;fillColor=#f5f5f5;strokeColor=#666666;fontColor=#333333;" vertex="1" parent="1">
          <mxGeometry x="144.5" y="229.5" width="137" height="25.5" as="geometry" />
        </mxCell>
        <mxCell id="mOf4tWiYJ4hYIlibuN8Z-35" value="$$(HP_{k/k-1}{H}^{T}+R_{k})^{-1}$$" style="text;whiteSpace=wrap;" vertex="1" parent="1">
          <mxGeometry x="144.5" y="214.25" width="135" height="37.5" as="geometry" />
        </mxCell>
        <mxCell id="mOf4tWiYJ4hYIlibuN8Z-36" style="edgeStyle=orthogonalEdgeStyle;rounded=0;orthogonalLoop=1;jettySize=auto;html=1;exitX=0.5;exitY=0;exitDx=0;exitDy=0;entryX=0;entryY=0.75;entryDx=0;entryDy=0;strokeColor=#56517E;" edge="1" parent="1" source="mOf4tWiYJ4hYIlibuN8Z-37" target="mOf4tWiYJ4hYIlibuN8Z-35">
          <mxGeometry relative="1" as="geometry">
            <Array as="points">
              <mxPoint x="63.5" y="242" />
            </Array>
          </mxGeometry>
        </mxCell>
        <mxCell id="mOf4tWiYJ4hYIlibuN8Z-37" value="矩阵&lt;div&gt;求逆&lt;/div&gt;" style="rounded=0;whiteSpace=wrap;html=1;fillColor=#d0cee2;strokeColor=#56517e;" vertex="1" parent="1">
          <mxGeometry x="40" y="266" width="48" height="47.75" as="geometry" />
        </mxCell>
        <mxCell id="mOf4tWiYJ4hYIlibuN8Z-38" style="edgeStyle=orthogonalEdgeStyle;rounded=0;orthogonalLoop=1;jettySize=auto;html=1;exitX=1;exitY=0.5;exitDx=0;exitDy=0;entryX=0;entryY=0.5;entryDx=0;entryDy=0;strokeColor=#666666;" edge="1" parent="1" source="mOf4tWiYJ4hYIlibuN8Z-39" target="mOf4tWiYJ4hYIlibuN8Z-44">
          <mxGeometry relative="1" as="geometry" />
        </mxCell>
        <mxCell id="mOf4tWiYJ4hYIlibuN8Z-39" value="" style="rounded=0;whiteSpace=wrap;html=1;fillColor=#f5f5f5;strokeColor=#666666;fontColor=#333333;" vertex="1" parent="1">
          <mxGeometry x="142.75" y="274.57" width="137" height="25.5" as="geometry" />
        </mxCell>
        <mxCell id="mOf4tWiYJ4hYIlibuN8Z-40" value="$$P_{k/k-1}H^{T}$$" style="text;whiteSpace=wrap;" vertex="1" parent="1">
          <mxGeometry x="176" y="263" width="70.5" height="36" as="geometry" />
        </mxCell>
        <mxCell id="mOf4tWiYJ4hYIlibuN8Z-41" value="" style="endArrow=classic;html=1;rounded=0;strokeColor=#6C8EBF;" edge="1" parent="1">
          <mxGeometry width="50" height="50" relative="1" as="geometry">
            <mxPoint x="209.75" y="347.44" as="sourcePoint" />
            <mxPoint x="209.75" y="300.44" as="targetPoint" />
          </mxGeometry>
        </mxCell>
        <mxCell id="mOf4tWiYJ4hYIlibuN8Z-42" style="edgeStyle=orthogonalEdgeStyle;rounded=0;orthogonalLoop=1;jettySize=auto;html=1;entryX=0;entryY=0.5;entryDx=0;entryDy=0;strokeColor=#82B366;" edge="1" parent="1" source="mOf4tWiYJ4hYIlibuN8Z-44" target="mOf4tWiYJ4hYIlibuN8Z-20">
          <mxGeometry relative="1" as="geometry" />
        </mxCell>
        <mxCell id="mOf4tWiYJ4hYIlibuN8Z-43" style="edgeStyle=orthogonalEdgeStyle;rounded=0;orthogonalLoop=1;jettySize=auto;html=1;exitX=0.5;exitY=1;exitDx=0;exitDy=0;entryX=0;entryY=0.5;entryDx=0;entryDy=0;strokeColor=#82B366;" edge="1" parent="1" source="mOf4tWiYJ4hYIlibuN8Z-44" target="mOf4tWiYJ4hYIlibuN8Z-19">
          <mxGeometry relative="1" as="geometry" />
        </mxCell>
        <mxCell id="mOf4tWiYJ4hYIlibuN8Z-44" value="" style="shape=sumEllipse;perimeter=ellipsePerimeter;whiteSpace=wrap;html=1;backgroundOutline=1;fillColor=#d5e8d4;strokeColor=#82B366;" vertex="1" parent="1">
          <mxGeometry x="340.5" y="238" width="32" height="32" as="geometry" />
        </mxCell>
        <mxCell id="mOf4tWiYJ4hYIlibuN8Z-45" value="" style="endArrow=classic;html=1;rounded=0;strokeColor=#6C8EBF;jumpSize=6;startSize=6;endSize=4;" edge="1" parent="1">
          <mxGeometry width="50" height="50" relative="1" as="geometry">
            <mxPoint x="497.5" y="350" as="sourcePoint" />
            <mxPoint x="497.5" y="323" as="targetPoint" />
          </mxGeometry>
        </mxCell>
        <mxCell id="mOf4tWiYJ4hYIlibuN8Z-46" value="$$k-1$$" style="text;html=1;align=center;verticalAlign=middle;resizable=0;points=[];autosize=1;strokeColor=none;fillColor=none;" vertex="1" parent="1">
          <mxGeometry x="118.5" y="368" width="70" height="30" as="geometry" />
        </mxCell>
        <mxCell id="mOf4tWiYJ4hYIlibuN8Z-47" value="第" style="text;html=1;align=center;verticalAlign=middle;resizable=0;points=[];autosize=1;strokeColor=none;fillColor=none;" vertex="1" parent="1">
          <mxGeometry x="106.5" y="368" width="40" height="30" as="geometry" />
        </mxCell>
        <mxCell id="mOf4tWiYJ4hYIlibuN8Z-48" value="时刻" style="text;html=1;align=center;verticalAlign=middle;resizable=0;points=[];autosize=1;strokeColor=none;fillColor=none;" vertex="1" parent="1">
          <mxGeometry x="166.5" y="368" width="50" height="30" as="geometry" />
        </mxCell>
        <mxCell id="mOf4tWiYJ4hYIlibuN8Z-50" value="$$k$$" style="text;html=1;align=center;verticalAlign=middle;resizable=0;points=[];autosize=1;strokeColor=none;fillColor=none;" vertex="1" parent="1">
          <mxGeometry x="279.5" y="368" width="60" height="30" as="geometry" />
        </mxCell>
        <mxCell id="mOf4tWiYJ4hYIlibuN8Z-51" value="第" style="text;html=1;align=center;verticalAlign=middle;resizable=0;points=[];autosize=1;strokeColor=none;fillColor=none;" vertex="1" parent="1">
          <mxGeometry x="271" y="368" width="40" height="30" as="geometry" />
        </mxCell>
        <mxCell id="mOf4tWiYJ4hYIlibuN8Z-52" value="时刻" style="text;html=1;align=center;verticalAlign=middle;resizable=0;points=[];autosize=1;strokeColor=none;fillColor=none;" vertex="1" parent="1">
          <mxGeometry x="311" y="368" width="50" height="30" as="geometry" />
        </mxCell>
        <mxCell id="mOf4tWiYJ4hYIlibuN8Z-54" value="滤波计算" style="rounded=1;whiteSpace=wrap;html=1;" vertex="1" parent="1">
          <mxGeometry x="263.5" y="690" width="72.5" height="30" as="geometry" />
        </mxCell>
        <mxCell id="mOf4tWiYJ4hYIlibuN8Z-55" value="增益计算" style="rounded=1;whiteSpace=wrap;html=1;" vertex="1" parent="1">
          <mxGeometry x="511.5" y="670" width="70" height="30" as="geometry" />
        </mxCell>
        <mxCell id="mOf4tWiYJ4hYIlibuN8Z-56" value="" style="rounded=0;whiteSpace=wrap;html=1;fillColor=#f5f5f5;strokeColor=#666666;fontColor=#333333;" vertex="1" parent="1">
          <mxGeometry x="134" y="531.5699999999999" width="137" height="25.5" as="geometry" />
        </mxCell>
        <mxCell id="mOf4tWiYJ4hYIlibuN8Z-57" value="$$P_{k-1/k-1}$$" style="text;whiteSpace=wrap;" vertex="1" parent="1">
          <mxGeometry x="167.25" y="520" width="70.5" height="36" as="geometry" />
        </mxCell>
      </root>
    </mxGraphModel>
  </diagram>
</mxfile>
